# xmcd CD database file
#
# Track frame offsets:
# 150
# 2570
# 5028
# 7008
# 9055
# 14142
# 15196
# 16683
# 18807
# 21690
# 23838
# 24856
# 26799
# 29321
# 32254
# 33949
# 36323
# 39008
# 40573
# 43086
# 45417
# 49075
# 52034
# 56308
# 59088
# 60800
# 62148
# 62879
# 63539
# 65518
# 66278
# 67058
# 68508
# 73904
# 76344
# 77065
# 79529
# 83076
# 85483
# 87698
# 92245
# 96464
# 98392
# 103545
# 107467
# 110098
# 112960
# 117157
# 121848
#
# Disc length: 1664 seconds
# Revision: 2
# Processed by: cddbd v1.5.2PL0 Copyright (c) Steve Scherf et al.
# Submitted via: MusicBin 0.4
#
DISCID=6d067e31
DTITLE=Andrew Green - Jazz Guitar Comping: Raising Your Chord Awar
DTITLE=eness
DYEAR=2005
DGENRE=Instructional
TTITLE0=Voice Leading: P.13
TTITLE1=Voice Leading: P.14
TTITLE2=Voice Leading: P.15
TTITLE3=Voice Leading: P.16
TTITLE4=Voice Leading: P.23
TTITLE5=Multi-Use Voicings: P.25
TTITLE6=Multi-Use Voicings: P.26
TTITLE7=Multi-Use Voicings: P.27
TTITLE8=Multi-Use Voicings: P.28
TTITLE9=Multi-Use Voicings: P.29
TTITLE10=Multi-Use Voicings: P.32
TTITLE11=Multi-Use Voicings: P.33
TTITLE12=Multi-Use Voicings: P.34
TTITLE13=Multi-Use Voicings: P.35
TTITLE14=Multi-Use Voicings: P.37
TTITLE15=Multi-Use Voicings: P.38
TTITLE16=Multi-Use Voicings: P.38-2
TTITLE17=Multi-Use Voicings: P.39
TTITLE18=Multi-Use Voicings: P.39-2
TTITLE19=Multi-Use Voicings: P.42
TTITLE20=Multi-Use Voicings: P.43
TTITLE21=Multi-Use Voicings: P.48
TTITLE22=Multi-Use Voicings: P.49
TTITLE23=Voicing Variations: P.60
TTITLE24=Voicing Variations: P.61
TTITLE25=Passing Chords: P.62
TTITLE26=Passing Chords: P.63
TTITLE27=Passing Chords: P.64
TTITLE28=Passing Chords: P.65
TTITLE29=Harmonized Scales: P.68
TTITLE30=Harmonized Scales: P.69
TTITLE31=Harmonized Scales: P.69-2
TTITLE32=Harmonized Scales: P.71
TTITLE33=Intervallic Comping: P.75
TTITLE34=Rhythm: P.79
TTITLE35=Rhythm: P.82
TTITLE36=Rhythm: P.83
TTITLE37=Rhythm: P.87
TTITLE38=Rhythm: P.93
TTITLE39=Rhythm: P.94
TTITLE40=Rhythm: P.95
TTITLE41=Rhythm: P.96
TTITLE42=Rhythm: P.97
TTITLE43=Rhythm: P.98
TTITLE44=Rhythm: P.99
TTITLE45=Blues: P.100
TTITLE46=Standard: P.108
TTITLE47=Modern: P.118
TTITLE48=Modal: P.126
EXTD=
EXTT0=
EXTT1=
EXTT2=
EXTT3=
EXTT4=
EXTT5=
EXTT6=
EXTT7=
EXTT8=
EXTT9=
EXTT10=
EXTT11=
EXTT12=
EXTT13=
EXTT14=
EXTT15=
EXTT16=
EXTT17=
EXTT18=
EXTT19=
EXTT20=
EXTT21=
EXTT22=
EXTT23=
EXTT24=
EXTT25=
EXTT26=
EXTT27=
EXTT28=
EXTT29=
EXTT30=
EXTT31=
EXTT32=
EXTT33=
EXTT34=
EXTT35=
EXTT36=
EXTT37=
EXTT38=
EXTT39=
EXTT40=
EXTT41=
EXTT42=
EXTT43=
EXTT44=
EXTT45=
EXTT46=
EXTT47=
EXTT48=
PLAYORDER=
